<svg width="45" height="46" viewBox="0 0 45 46" fill="none" xmlns="http://www.w3.org/2000/svg">
<rect x="44.5" y="0.500002" width="45" height="44" rx="22" transform="rotate(90 44.5 0.500002)" stroke="black"/>
<path d="M22.1464 31.3536C22.3417 31.5488 22.6583 31.5488 22.8536 31.3536L26.0355 28.1716C26.2308 27.9763 26.2308 27.6597 26.0355 27.4645C25.8403 27.2692 25.5237 27.2692 25.3284 27.4645L22.5 30.2929L19.6716 27.4645C19.4763 27.2692 19.1597 27.2692 18.9645 27.4645C18.7692 27.6597 18.7692 27.9763 18.9645 28.1716L22.1464 31.3536ZM22.5 15L22 15L22 31L22.5 31L23 31L23 15L22.5 15Z" fill="black"/>
</svg>
