<svg width="10" height="28" viewBox="0 0 28 28" fill="currentColor" xmlns="http://www.w3.org/2000/svg">
<path d="M13.7852 0C19.2918 0 22.0452 0.000326669 24.0283 1.3125C24.9139 1.89846 25.6728 2.65641 26.2588 3.54199C27.571 5.52513 27.5703 8.2786 27.5703 13.7852C27.5703 19.2916 27.5708 22.0452 26.2588 24.0283C25.6728 24.9139 24.9139 25.6728 24.0283 26.2588C22.0452 27.5708 19.2916 27.5703 13.7852 27.5703C8.2786 27.5703 5.52513 27.571 3.54199 26.2588C2.65641 25.6728 1.89846 24.9139 1.3125 24.0283C0.000326669 22.0452 0 19.2918 0 13.7852C2.11236e-10 8.27859 0.000315932 5.52513 1.3125 3.54199C1.89838 2.65661 2.65661 1.89838 3.54199 1.3125C5.52513 0.000315932 8.27859 2.11236e-10 13.7852 0ZM13.7852 6.64844C9.84378 6.64851 6.64866 9.84381 6.64844 13.7852C6.64844 17.7267 9.84364 20.9228 13.7852 20.9229C17.7267 20.9229 20.9219 17.7267 20.9219 13.7852C20.9217 9.84377 17.7266 6.64844 13.7852 6.64844ZM13.7852 9.06348C16.3931 9.06348 18.5076 11.1773 18.5078 13.7852C18.5078 16.3932 16.3932 18.5078 13.7852 18.5078C11.1772 18.5077 9.06348 16.3931 9.06348 13.7852C9.0637 11.1774 11.1773 9.06355 13.7852 9.06348ZM21.2041 4.61328C20.278 4.61338 19.5273 5.36395 19.5273 6.29004C19.5275 7.21599 20.2781 7.96669 21.2041 7.9668C22.1302 7.9668 22.8807 7.21606 22.8809 6.29004C22.8809 5.36389 22.1303 4.61328 21.2041 4.61328Z" />
</svg>
