<svg width="10" height="28" viewBox="0 0 31 28" fill="currentColor" xmlns="http://www.w3.org/2000/svg">
<path d="M0 3.21961C0 2.28637 0.343173 1.51646 1.02949 0.909888C1.71581 0.303287 2.60805 0 3.70617 0C4.78469 0 5.65728 0.298611 6.32401 0.89589C7.01033 1.51181 7.3535 2.31436 7.3535 3.30359C7.3535 4.19948 7.02015 4.94604 6.35343 5.54332C5.66711 6.15924 4.76507 6.46721 3.64734 6.46721H3.61792C2.5394 6.46721 1.6668 6.15924 1.00008 5.54332C0.333349 4.9274 0 4.15281 0 3.21961ZM0.382382 27.7166V9.01489H6.91229V27.7166H0.382382ZM10.5302 27.7166H17.0601V17.2739C17.0601 16.6206 17.1386 16.1167 17.2954 15.7621C17.57 15.1275 17.9867 14.5909 18.5455 14.1523C19.1044 13.7136 19.8054 13.4943 20.6486 13.4943C22.8449 13.4943 23.943 14.9035 23.943 17.7218V27.7166H30.4729V16.9939C30.4729 14.2316 29.7866 12.1365 28.4139 10.7087C27.0413 9.28086 25.2274 8.56695 22.9723 8.56695C20.4427 8.56695 18.472 9.60282 17.0601 11.6746V11.7306H17.0307L17.0601 11.6746V9.01489H10.5302C10.5694 9.61215 10.589 11.4692 10.589 14.5862C10.589 17.7032 10.5694 22.0799 10.5302 27.7166Z" />
</svg>
