<svg
  viewBox="0 0 362 302"
  fill="none"
  xmlns="http://www.w3.org/2000/svg"
  preserveAspectRatio="xMidYMid meet"
>
<g opacity="0.1">
<path d="M44.0454 1.03857C42.0125 38.3078 13.8348 54.966 0 58.6364C35.2363 60.6693 51.3863 28.4258 55.0568 12.0499L107.572 28.9905L148.23 58.6364L132.136 82.3532L88.9378 53.5542C77.4183 128.093 135.524 195.29 166.017 219.572C129.426 226.348 104.467 257.405 96.5611 272.087L180.417 222.96V216.183C118.753 166.717 101.643 104.658 100.796 79.8121L138.065 101.835L169.405 53.5542L114.349 16.2851L44.0454 1.03857Z" stroke="white" stroke-width="1.69405"/>
<path d="M316.789 1.88525C318.821 39.1544 346.999 55.8126 360.834 59.4831C325.598 61.5159 309.448 29.2725 305.777 12.8966L253.262 29.8371L212.604 59.4831L228.698 83.1998L271.896 54.4009C283.416 128.939 225.31 196.137 194.817 220.418C231.408 227.194 256.367 258.252 264.273 272.934L180.417 223.806V217.03C242.081 167.564 259.191 105.505 260.038 80.6588L222.769 102.681L191.429 54.4009L246.485 17.1317L316.789 1.88525Z" stroke="white" stroke-width="1.69405"/>
<path d="M94.8676 278.016C65.7299 250.233 58.4455 227.476 58.4455 219.571C41.5049 252.774 71.7156 287.051 88.9384 300.038C167.543 221.434 244.227 267.287 272.743 300.038C311.368 266.835 309.73 232.559 304.083 219.571C302.728 235.834 277.543 265.31 265.12 278.016L179.57 226.347L94.8676 278.016Z" stroke="white" stroke-width="1.69405"/>
<path d="M131.289 104.376V159.433H141.453V145.881H238.861V104.376H131.289Z" stroke="white" stroke-width="1.69405"/>
<path d="M141.452 117.082V135.717H227.002V117.082H141.452Z" stroke="white" stroke-width="1.69405"/>
</g>
</svg>

