<svg
  width="36"
  height="36"
  viewBox="0 0 36 36"
  fill="none"
  xmlns="http://www.w3.org/2000/svg"
>
  <g clip-path="url(#clip0)">
    <path
      d="M17.6709 20.4834C17.7755 20.379 17.8585 20.2549 17.9151 20.1183C17.9718 19.9817 18.0009 19.8354 18.0009 19.6875C18.0009 19.5397 17.9718 19.3933 17.9151 19.2567C17.8585 19.1201 17.7755 18.9961 17.6709 18.8916L10.8281 11.9531C10.3816 11.505 10.1309 10.8982 10.1309 10.2656C10.1309 9.63303 10.3816 9.02622 10.8281 8.57814C11.2762 8.13159 11.883 7.88086 12.5156 7.88086C13.1482 7.88086 13.755 8.13159 14.2031 8.57814L24.4252 18.8958C24.5298 19.0003 24.6127 19.1243 24.6694 19.2609C24.726 19.3975 24.7551 19.5439 24.7551 19.6917C24.7551 19.8396 24.726 19.986 24.6694 20.1225C24.6127 20.2591 24.5298 20.3832 24.4252 20.4877L11.9531 33.0469C11.505 33.4934 10.8982 33.7442 10.2656 33.7442C9.63303 33.7442 9.02622 33.4934 8.57814 33.0469C8.13159 32.5988 7.88086 31.992 7.88086 31.3594C7.88086 30.7268 8.13159 30.12 8.57814 29.6719L17.6709 20.4834Z"
      stroke="currentColor"
      stroke-width="1.2"
      stroke-linecap="round"
      stroke-linejoin="round"
    />
    <path
      d="M18.6016 13.019L21.22 10.454C21.4295 10.2446 21.7131 10.1263 22.0093 10.1247C22.3055 10.1231 22.5904 10.2384 22.8021 10.4455L28.0685 15.4208C28.2794 15.6317 28.5655 15.7501 28.8637 15.7501C29.162 15.7501 29.448 15.6317 29.6589 15.4208L30.1821 14.8977C31.0258 14.0538 31.4997 12.9094 31.4997 11.7161C31.4997 10.5228 31.0258 9.37833 30.1821 8.53444L23.8539 2.57897C23.7495 2.47437 23.6254 2.39139 23.4888 2.33478C23.3522 2.27816 23.2059 2.24902 23.058 2.24902C22.9102 2.24902 22.7638 2.27816 22.6272 2.33478C22.4906 2.39139 22.3666 2.47437 22.2621 2.57897L15.2041 9.58913"
      stroke="currentColor"
      stroke-width="1.2"
      stroke-linecap="round"
      stroke-linejoin="round"
    />
    <path
      d="M11.8126 12.9546L8.20412 16.5462C7.9933 16.7571 7.87488 17.0431 7.87488 17.3414C7.87488 17.6396 7.9933 17.9257 8.20412 18.1366L9.98443 19.9212C10.1954 20.132 10.4814 20.2504 10.7797 20.2504C11.0779 20.2504 11.3639 20.132 11.5749 19.9212L15.1876 16.369"
      stroke="currentColor"
      stroke-width="1.2"
      stroke-linecap="round"
      stroke-linejoin="round"
    />
  </g>

  <defs>
    <clipPath id="clip0">
      <rect width="36" height="36" fill="white" />
    </clipPath>
  </defs>
</svg>
