<svg width="10" height="22" viewBox="0 0 20 22" fill="currentColor" xmlns="http://www.w3.org/2000/svg">
<path d="M19.8947 21.3551C19.8164 21.4977 19.7012 21.6167 19.5613 21.6997C19.4213 21.7827 19.2616 21.8266 19.0989 21.8268H13.6422C13.4891 21.8268 13.3386 21.7881 13.2044 21.7144C13.0703 21.6407 12.9569 21.5343 12.8749 21.4051L8.2719 14.1715L1.58289 21.529C1.41983 21.7041 1.1943 21.808 0.955192 21.818C0.716087 21.828 0.482681 21.7433 0.305577 21.5823C0.128473 21.4214 0.021945 21.1971 0.00908908 20.9582C-0.00376689 20.7192 0.0780854 20.4848 0.2369 20.3058L7.259 12.5754L0.142544 1.39828C0.0548975 1.26078 0.00583326 1.10224 0.000488728 0.939259C-0.0048558 0.776284 0.0337159 0.614869 0.112165 0.471916C0.190615 0.328964 0.306056 0.209733 0.4464 0.126709C0.586745 0.0436847 0.74683 -7.91944e-05 0.909894 1.07582e-07H6.3666C6.51966 4.74395e-05 6.67024 0.0387257 6.80437 0.112451C6.93851 0.186177 7.05187 0.292564 7.13395 0.421758L11.7369 7.6553L18.4259 0.297845C18.589 0.122684 18.8145 0.0188523 19.0536 0.00886239C19.2927 -0.00112754 19.5261 0.0835292 19.7032 0.244479C19.8803 0.405428 19.9869 0.629698 19.9997 0.868665C20.0126 1.10763 19.9307 1.34204 19.7719 1.52106L12.7498 9.24571L19.8663 20.4297C19.9534 20.5673 20.002 20.7257 20.007 20.8885C20.012 21.0513 19.9732 21.2124 19.8947 21.3551Z" />
</svg>
