<svg width="13" height="20" viewBox="0 0 26 20" fill="currentColor" xmlns="http://www.w3.org/2000/svg">
<path d="M24.7327 3.34407C24.626 2.92645 24.4214 2.5402 24.136 2.21718C23.8506 1.89416 23.4925 1.64363 23.0912 1.48625C19.208 -0.0135895 13.0273 4.30914e-06 12.6875 4.30914e-06C12.3477 4.30914e-06 6.16703 -0.0135895 2.28375 1.48625C1.88247 1.64363 1.52435 1.89416 1.23895 2.21718C0.953551 2.5402 0.749045 2.92645 0.642305 3.34407C0.348906 4.47461 0 6.54086 0 9.96875C0 13.3966 0.348906 15.4629 0.642305 16.5934C0.748885 17.0113 0.953319 17.3977 1.23873 17.721C1.52414 18.0442 1.88234 18.2949 2.28375 18.4524C6.00391 19.8877 11.8266 19.9375 12.6127 19.9375H12.7623C13.5484 19.9375 19.3745 19.8877 23.0912 18.4524C23.4927 18.2949 23.8509 18.0442 24.1363 17.721C24.4217 17.3977 24.6261 17.0113 24.7327 16.5934C25.0261 15.4606 25.375 13.3966 25.375 9.96875C25.375 6.54086 25.0261 4.47461 24.7327 3.34407ZM16.3793 10.7073L11.8481 13.8792C11.7125 13.9742 11.5536 14.0302 11.3884 14.0412C11.2233 14.0522 11.0583 14.0178 10.9114 13.9417C10.7644 13.8656 10.6411 13.7507 10.5548 13.6095C10.4685 13.4683 10.4225 13.3061 10.4219 13.1406V6.79688C10.4219 6.63109 10.4674 6.4685 10.5535 6.32679C10.6395 6.18508 10.7628 6.06969 10.9099 5.99318C11.0569 5.91666 11.2222 5.88196 11.3876 5.89284C11.553 5.90372 11.7123 5.95977 11.8481 6.05489L16.3793 9.22676C16.4985 9.31035 16.5958 9.42142 16.663 9.55058C16.7302 9.67973 16.7653 9.82317 16.7653 9.96875C16.7653 10.1143 16.7302 10.2578 16.663 10.3869C16.5958 10.5161 16.4985 10.6272 16.3793 10.7107V10.7073Z" />
</svg>
